<?xml version="1.0" encoding="iso-8859-1"?>
<!-- Generator: Adobe Illustrator 21.0.2, SVG Export Plug-In . SVG Version: 6.00 Build 0)  -->
<svg xmlns="http://www.w3.org/2000/svg" xmlns:xlink="http://www.w3.org/1999/xlink" version="1.1" id="Layer_1" x="0px" y="0px" viewBox="0 0 80 80" style="enable-background:new 0 0 80 80;" xml:space="preserve" width="500px" height="500px">
<g>
	<g>
		<polygon style="fill:none;stroke:#000000;stroke-width:2;stroke-miterlimit:10;" points="55,37 43,37 43,25 37,25 37,37 25,37     25,43 37,43 37,55 43,55 43,43 55,43   "/>
	</g>
</g>
<circle style="fill:none;stroke:#000000;stroke-width:2;stroke-miterlimit:10;" cx="40" cy="40" r="32"/>
<circle cx="40" cy="13" r="1"/>
<circle cx="40" cy="67" r="1"/>
<circle cx="67" cy="40" r="1"/>
<circle cx="13" cy="40" r="1"/>
<ellipse transform="matrix(0.7071 -0.7071 0.7071 0.7071 2.5233 47.9081)" cx="59.092" cy="20.908" rx="1" ry="1"/>
<ellipse transform="matrix(0.7071 -0.7071 0.7071 0.7071 -35.6604 32.0919)" cx="20.908" cy="59.092" rx="1" ry="1"/>
<ellipse transform="matrix(0.7071 -0.7071 0.7071 0.7071 -24.4767 59.0919)" cx="59.092" cy="59.092" rx="1" ry="1"/>
<ellipse transform="matrix(0.7071 -0.7071 0.7071 0.7071 -8.6604 20.9081)" cx="20.908" cy="20.908" rx="1" ry="1"/>
<ellipse transform="matrix(0.9239 -0.3827 0.3827 0.9239 -3.5031 12.4993)" cx="29.668" cy="15.055" rx="1" ry="1"/>
<ellipse transform="matrix(0.9239 -0.3827 0.3827 0.9239 -21.0219 24.205)" cx="50.332" cy="64.945" rx="1" ry="1"/>
<ellipse transform="matrix(0.9239 -0.3827 0.3827 0.9239 -6.4097 27.1116)" cx="64.945" cy="29.668" rx="1" ry="1"/>
<ellipse transform="matrix(0.9239 -0.3827 0.3827 0.9239 -18.1154 9.5927)" cx="15.055" cy="50.332" rx="1" ry="1"/>
<ellipse transform="matrix(0.3827 -0.9239 0.9239 0.3827 17.1618 55.795)" cx="50.332" cy="15.055" rx="1" ry="1"/>
<ellipse transform="matrix(0.3827 -0.9239 0.9239 0.3827 -41.6869 67.5007)" cx="29.668" cy="64.945" rx="1" ry="1"/>
<ellipse transform="matrix(0.3827 -0.9239 0.9239 0.3827 -6.4097 91.0722)" cx="64.945" cy="50.332" rx="1" ry="1"/>
<ellipse transform="matrix(0.3827 -0.9239 0.9239 0.3827 -18.1154 32.2235)" cx="15.055" cy="29.668" rx="1" ry="1"/>
<ellipse transform="matrix(0.9808 -0.1951 0.1951 0.9808 -1.97 7.0357)" cx="34.733" cy="13.519" rx="1" ry="1"/>
<ellipse transform="matrix(0.9808 -0.1951 0.1951 0.9808 -12.1 10.1087)" cx="45.267" cy="66.481" rx="1" ry="1"/>
<ellipse transform="matrix(0.9808 -0.1951 0.1951 0.9808 -5.4986 13.6372)" cx="66.481" cy="34.733" rx="1" ry="1"/>
<ellipse transform="matrix(0.9808 -0.1951 0.1951 0.9808 -8.5715 3.5072)" cx="13.519" cy="45.267" rx="1" ry="1"/>
<ellipse transform="matrix(0.5556 -0.8315 0.8315 0.5556 9.8513 53.531)" cx="55" cy="17.55" rx="1" ry="1"/>
<ellipse transform="matrix(0.5556 -0.8315 0.8315 0.5556 -40.8144 48.5409)" cx="25" cy="62.45" rx="1" ry="1"/>
<ellipse transform="matrix(0.5556 -0.8315 0.8315 0.5556 -17.9767 76.3688)" cx="62.45" cy="55" rx="1" ry="1"/>
<ellipse transform="matrix(0.5556 -0.8315 0.8315 0.5556 -12.9865 25.7031)" cx="17.55" cy="25" rx="1" ry="1"/>
<ellipse transform="matrix(0.8315 -0.5556 0.5556 0.8315 -5.5372 16.8468)" cx="25" cy="17.55" rx="1" ry="1"/>
<ellipse transform="matrix(0.8315 -0.5556 0.5556 0.8315 -25.4259 41.0813)" cx="55" cy="62.45" rx="1" ry="1"/>
<ellipse transform="matrix(0.8315 -0.5556 0.5556 0.8315 -3.3644 38.9084)" cx="62.45" cy="25" rx="1" ry="1"/>
<ellipse transform="matrix(0.8315 -0.5556 0.5556 0.8315 -27.5988 19.0197)" cx="17.55" cy="55" rx="1" ry="1"/>
<ellipse transform="matrix(0.1951 -0.9808 0.9808 0.1951 23.1772 55.279)" cx="45.267" cy="13.519" rx="1" ry="1"/>
<ellipse transform="matrix(0.1951 -0.9808 0.9808 0.1951 -37.2472 87.5765)" cx="34.733" cy="66.481" rx="1" ry="1"/>
<ellipse transform="matrix(0.1951 -0.9808 0.9808 0.1951 9.1137 101.64)" cx="66.481" cy="45.267" rx="1" ry="1"/>
<ellipse transform="matrix(0.1951 -0.9808 0.9808 0.1951 -23.1838 41.2156)" cx="13.519" cy="34.733" rx="1" ry="1"/>
</svg>
